<svg xmlns="http://www.w3.org/2000/svg" xmlns:xlink="http://www.w3.org/1999/xlink" viewBox="0 0 452 452"><defs><style>.cls-1{fill:url(#linear-gradient);}.cls-2{fill:#d9b27d;}.cls-3{fill:#b1894e;}.cls-4{fill:url(#linear-gradient-2);}.cls-5{fill:#e5d8b3;}.cls-6{fill:url(#linear-gradient-3);}.cls-7{fill:#fff;}</style><linearGradient id="linear-gradient" x1="226" y1="0.83" x2="226" y2="452.83" gradientUnits="userSpaceOnUse"><stop offset="0" stop-color="#d5bb72"/><stop offset="1" stop-color="#bb9152"/></linearGradient><linearGradient id="linear-gradient-2" x1="59" y1="226" x2="393" y2="226" gradientUnits="userSpaceOnUse"><stop offset="0" stop-color="#e7d0b3"/><stop offset="1" stop-color="#dfc29a"/></linearGradient><linearGradient id="linear-gradient-3" x1="137.45" y1="225.78" x2="315.96" y2="225.78" gradientUnits="userSpaceOnUse"><stop offset="0" stop-color="#c69f69"/><stop offset="1" stop-color="#ddc39e"/></linearGradient></defs><g id="Layer_2" data-name="Layer 2"><g id="Layer_1-2" data-name="Layer 1"><circle class="cls-1" cx="226" cy="226" r="226"/><path class="cls-2" d="M301.22,424.5l-11.84-27.36L299,393a10.85,10.85,0,0,1,5.14-1.06,7.18,7.18,0,0,1,3.9,1.43,8.17,8.17,0,0,1,2.49,3.27,6.5,6.5,0,0,1,.64,3.18,5.39,5.39,0,0,1-.84,2.52,8.08,8.08,0,0,1-1.76,1.93l.12.27a5.79,5.79,0,0,1,2.9-.21,7,7,0,0,1,3.12,1.38A7.83,7.83,0,0,1,317.1,409a7.94,7.94,0,0,1,.67,4.11A7.08,7.08,0,0,1,316,417a13.37,13.37,0,0,1-4.84,3.23Zm-3.32-16.77,6.14-2.66a6.69,6.69,0,0,0,2.46-1.76,5.26,5.26,0,0,0,1.2-2.49,4.76,4.76,0,0,0-.37-2.82,4.56,4.56,0,0,0-2.58-2.52,5.9,5.9,0,0,0-4.53.46L294,398.65Zm5.37,12.4,6.57-2.84q3.24-1.41,4.07-3.27a4.38,4.38,0,0,0,0-3.66,5.37,5.37,0,0,0-1.82-2.26,5.51,5.51,0,0,0-2.84-1,7,7,0,0,0-3.41.62l-6.73,2.92Z"/><path class="cls-2" d="M338,406.31l-16.87-24.59,8.31-5.7a12.24,12.24,0,0,1,5.4-2.26,7.62,7.62,0,0,1,4.58.8,10,10,0,0,1,3.54,3.27,9.85,9.85,0,0,1,1.76,4.46,7.53,7.53,0,0,1-.92,4.51,12.18,12.18,0,0,1-4,4.17L333,395.59l-1.85-2.69,6.63-4.55a9.07,9.07,0,0,0,2.78-2.75,4.49,4.49,0,0,0,.63-2.85,6.74,6.74,0,0,0-1.19-2.91,7,7,0,0,0-2.33-2.2,4.56,4.56,0,0,0-2.94-.5,8.78,8.78,0,0,0-3.62,1.59l-5.23,3.59,15.05,21.95Zm4-19,13.63,6.89-3.46,2.37-13.53-7Z"/><path class="cls-2" d="M377.1,353.23a18.26,18.26,0,0,1,4.69,6.89,12.78,12.78,0,0,1,.57,7,13.25,13.25,0,0,1-9.41,9.77,12.75,12.75,0,0,1-7.06-.31,20.38,20.38,0,0,1-11.74-11.31,12.7,12.7,0,0,1-.58-7,13.33,13.33,0,0,1,9.41-9.78,12.84,12.84,0,0,1,7.06.31A18.33,18.33,0,0,1,377.1,353.23Zm-2.43,2.52a15,15,0,0,0-5.6-3.61,9.48,9.48,0,0,0-5.32-.29,9.45,9.45,0,0,0-6.79,7.06,9.35,9.35,0,0,0,.49,5.3,17.14,17.14,0,0,0,9.41,9.07,9.49,9.49,0,0,0,5.32.3,9.44,9.44,0,0,0,6.8-7.06,9.55,9.55,0,0,0-.49-5.31A15,15,0,0,0,374.67,355.75Z"/><path class="cls-2" d="M387.48,311.26l25.4,15.62-1.83,3-28.46,1.57-.15.25L402.38,344,400.49,347l-25.4-15.63,1.83-3,28.54-1.59.15-.25-20-12.3Z"/><path class="cls-2" d="M421.78,308.11l-2.46-.9L402.27,283.9l-5.56,15.27-3-1.1,7-19.32,2.46.9L420.25,303l5.55-15.27,3,1.1Z"/><path class="cls-2" d="M433.79,269.12l-29.42-4.83,2.91-17.76,3.16.52-2.33,14.2,9.95,1.63,2.18-13.28,3.16.52-2.18,13.28,10,1.64,2.36-14.43,3.17.52Z"/><path class="cls-3" d="M393,230c0-94.44-74.77-171-167-171S59,135.56,59,230a174.22,174.22,0,0,0,11.15,61.56C94.28,355.58,155,401,226,401,318.23,401,393,324.44,393,230Z"/><path class="cls-4" d="M393,226A167,167,0,1,0,226,393,167,167,0,0,0,393,226Z"/><path class="cls-5" d="M44.66,189.18A184.05,184.05,0,0,1,59.16,146a10.61,10.61,0,0,0-18.66-9.65A204.39,204.39,0,0,0,24.7,182a10.61,10.61,0,0,0,20,7.14Z"/><path class="cls-5" d="M162,30.13a206.4,206.4,0,0,0-96.2,66.32C62,101.65,63.29,108.82,68,112a10.91,10.91,0,0,0,13.63-1.69,185.21,185.21,0,0,1,88.1-60.6A10.54,10.54,0,0,0,162,30.13Z"/><path class="cls-6" d="M226.56,314c-5.81-18.18-16.85-44.94-32.33-59.38-14.33-13.37-39.93-22.68-56.78-27.71,19-5.84,47.39-18.05,60-31.65,13.06-14.11,23.47-40.08,29-57.62,5.29,17.46,15.2,43.74,30.19,58.73,15.39,15.39,41.88,25.06,59.29,30.1-15.69,4.13-37.17,11.35-54.08,26C241.73,270,231.76,296.43,226.56,314Z"/><path class="cls-7" d="M226.35,150.22c5.93,16.82,14.93,36.37,27.49,48.94s32,21.4,48.47,27.11c-13.9,4.58-29.77,11.64-43.06,23.19-16.87,14.67-26.8,35.16-32.81,52-6.12-16.47-15.85-37-29.48-49.77-11.8-11-30.78-19.31-46.72-24.85,18.35-6.86,39.66-17.55,50.13-28.86,10.84-11.71,19.88-31.2,26-47.72m.15-27.72c-2.57,12.12-15.18,51.84-32,70-16.57,17.89-63.58,34-73.59,34h-.41c12.09,2.73,52.21,13.46,71,31C211.68,276.33,223.9,317,226.61,329c3.55-13.07,12-50.94,37.89-73.45,23-20,55-25.7,68-29-11.84-2.52-52.82-12.82-73-33-19.52-19.52-30.16-59.17-33-71Z"/><path class="cls-2" d="M67.07,277.43c1,2.93,2,5.83,3.08,8.69a167.07,167.07,0,0,0,314.78-8.68,180.82,180.82,0,0,1-317.86,0Z"/></g></g></svg>