<svg xmlns="http://www.w3.org/2000/svg" xmlns:xlink="http://www.w3.org/1999/xlink" viewBox="0 0 471.56 470.67"><defs><style>.cls-1{fill:url(#linear-gradient);}.cls-2{fill:#fff;}.cls-3{fill:#8a5fe6;}.cls-4{fill:url(#linear-gradient-2);}.cls-5{fill:#c7bfff;}.cls-6{fill:url(#linear-gradient-3);}</style><linearGradient id="linear-gradient" x1="-6.58" y1="569.32" x2="-6.58" y2="145.75" gradientTransform="matrix(1, 0, 0, -1, 242.36, 592.4)" gradientUnits="userSpaceOnUse"><stop offset="0" stop-color="#7070ff"/><stop offset="1" stop-color="#ab6bff"/></linearGradient><linearGradient id="linear-gradient-2" x1="-6.27" y1="525.06" x2="-6.77" y2="257.06" gradientTransform="matrix(1, 0, 0, -1, 242.36, 592.4)" gradientUnits="userSpaceOnUse"><stop offset="0" stop-color="#fcfbff"/><stop offset="1" stop-color="#d9d5fd"/></linearGradient><linearGradient id="linear-gradient-3" x1="-6.57" y1="448.29" x2="-6.57" y2="267.16" gradientTransform="matrix(1, 0, 0, -1, 242.36, 592.4)" gradientUnits="userSpaceOnUse"><stop offset="0" stop-color="#a96aff"/><stop offset="1" stop-color="#7770ff"/></linearGradient></defs><g id="Layer_2" data-name="Layer 2"><g id="Layer_1-2" data-name="Layer 1"><path class="cls-1" d="M213,6.5a43,43,0,0,1,45.48,0l51.31,32a43.15,43.15,0,0,0,13.07,5.41l58.9,13.59A43,43,0,0,1,414,89.66l13.61,58.7a43,43,0,0,0,5.43,13.1L465,212.53a43,43,0,0,1,0,45.61l-31.95,51.08a43,43,0,0,0-5.43,13.09L414,381A43,43,0,0,1,381.8,413.2l-58.9,13.6a43.13,43.13,0,0,0-13.07,5.4l-51.31,32a43,43,0,0,1-45.48,0l-51.32-32a43,43,0,0,0-13.06-5.4l-58.9-13.6A43,43,0,0,1,57.54,381l-13.61-58.7a43,43,0,0,0-5.43-13.09L6.55,258.14a43,43,0,0,1,0-45.61l32-51.07a43,43,0,0,0,5.43-13.1l13.61-58.7A43,43,0,0,1,89.76,57.47l58.9-13.59a43,43,0,0,0,13.06-5.41Z"/><path class="cls-2" d="M427.28,225.34s1.48,6.76,4.44,9.69,9.56,4.31,9.56,4.31-6.65,1.53-9.56,4.44-4.44,9.56-4.44,9.56-1.43-6.65-4.31-9.56-9.69-4.44-9.69-4.44S420,238,423,235,427.28,225.34,427.28,225.34Z"/><path class="cls-3" d="M403.11,239.67c0-94.44-74.77-171-167-171s-167,76.56-167,171a174.22,174.22,0,0,0,11.15,61.56c24.13,64,84.81,109.44,155.85,109.44C328.34,410.67,403.11,334.11,403.11,239.67Z"/><circle class="cls-4" cx="235.78" cy="234.84" r="167.5"/><path class="cls-5" d="M77.18,287.1q1.42,4.39,3.08,8.69A167.07,167.07,0,0,0,395,287.11a180.82,180.82,0,0,1-317.86,0Z"/><path class="cls-2" d="M121.28,337.34s3.27,15,9.84,21.46,21.16,9.54,21.16,9.54-14.72,3.39-21.16,9.83-9.84,21.17-9.84,21.17-3.17-14.72-9.54-21.17-21.46-9.83-21.46-9.83,15-3.06,21.46-9.54S121.28,337.34,121.28,337.34Z"/><path class="cls-2" d="M130.28,57.34S132.18,66,136,69.8s12.29,5.54,12.29,5.54-8.55,2-12.29,5.71-5.71,12.29-5.71,12.29-1.84-8.55-5.54-12.29-12.46-5.71-12.46-5.71,8.69-1.78,12.46-5.54S130.28,57.34,130.28,57.34Z"/><path class="cls-2" d="M336.77,194.74,236.43,335.67l-101-140.92,36.82-59.08H300.59Z"/><path class="cls-6" d="M322.11,198.3,236.06,319.16l-86.6-120.85L181,147.64h110Z"/><path class="cls-2" d="M278.78,147.34s3.22,14.74,9.68,21.11,20.82,9.39,20.82,9.39-14.48,3.33-20.82,9.68-9.68,20.82-9.68,20.82-3.12-14.48-9.39-20.82-21.11-9.68-21.11-9.68,14.73-3,21.11-9.39S278.78,147.34,278.78,147.34Z"/></g></g></svg>