<svg xmlns="http://www.w3.org/2000/svg" xmlns:xlink="http://www.w3.org/1999/xlink" viewBox="0 0 452 452"><defs><style>.cls-1{fill:url(#linear-gradient);}.cls-2{fill:#fed33f;}.cls-3{fill:#faa706;}.cls-4{fill:url(#linear-gradient-2);}.cls-5{fill:#fdecab;}.cls-6{fill:#fff;}.cls-7{fill:url(#linear-gradient-3);}</style><linearGradient id="linear-gradient" x1="226" y1="0.83" x2="226" y2="452.83" gradientUnits="userSpaceOnUse"><stop offset="0" stop-color="#fdde48"/><stop offset="1" stop-color="#f8b805"/></linearGradient><linearGradient id="linear-gradient-2" x1="59" y1="226" x2="393" y2="226" gradientUnits="userSpaceOnUse"><stop offset="0" stop-color="#fff14e"/><stop offset="1" stop-color="#ffe64b"/></linearGradient><linearGradient id="linear-gradient-3" x1="-16.83" y1="440.51" x2="-16.83" y2="254.15" gradientTransform="matrix(1, 0, 0, -1, 242.36, 573.06)" gradientUnits="userSpaceOnUse"><stop offset="0" stop-color="#fca610"/><stop offset="1" stop-color="#ffc625"/></linearGradient></defs><g id="Layer_2" data-name="Layer 2"><g id="Layer_1-2" data-name="Layer 1"><circle class="cls-1" cx="226" cy="226" r="226"/><path class="cls-2" d="M311.73,397.52a10.94,10.94,0,0,0-2.22-1.91,8.67,8.67,0,0,0-2.51-1.08,8,8,0,0,0-2.73-.17,9.61,9.61,0,0,0-2.89.81,8.87,8.87,0,0,0-3.84,3.21,9.4,9.4,0,0,0-1.52,5.09,17.28,17.28,0,0,0,5.33,11.94,9.49,9.49,0,0,0,4.84,2.26,9.33,9.33,0,0,0,5.11-.78,9,9,0,0,0,3.68-2.84,7.67,7.67,0,0,0,1.53-4.09,9.86,9.86,0,0,0-.93-4.79l1.11-.23-8.2,3.64-1.3-2.93L317.57,401l1.3,2.92a12.6,12.6,0,0,1,1.17,6.5,10.87,10.87,0,0,1-2.22,5.6,13,13,0,0,1-5.15,3.92,12.85,12.85,0,0,1-7.11,1.12,12.47,12.47,0,0,1-6.41-3,18.5,18.5,0,0,1-4.84-6.77,19.93,19.93,0,0,1-1.71-6.21,14,14,0,0,1,.5-5.51,11.9,11.9,0,0,1,2.54-4.47,12.89,12.89,0,0,1,4.37-3.11,13.27,13.27,0,0,1,4.31-1.14,12.19,12.19,0,0,1,4.15.34,11.55,11.55,0,0,1,3.7,1.71,12,12,0,0,1,3,3Z"/><path class="cls-2" d="M353.15,377.17a18,18,0,0,1,3.46,7.58,12.77,12.77,0,0,1-.63,7,13.32,13.32,0,0,1-10.94,8,12.73,12.73,0,0,1-6.9-1.51,18.16,18.16,0,0,1-6.2-5.56,18.35,18.35,0,0,1-3.46-7.58,12.8,12.8,0,0,1,.63-7,13.28,13.28,0,0,1,10.94-8,12.81,12.81,0,0,1,6.9,1.5A18.11,18.11,0,0,1,353.15,377.17Zm-2.81,2.06a14.94,14.94,0,0,0-4.91-4.5,9.37,9.37,0,0,0-5.19-1.19,9.42,9.42,0,0,0-7.9,5.8,9.42,9.42,0,0,0-.42,5.31,17.24,17.24,0,0,0,7.74,10.54,9.51,9.51,0,0,0,5.2,1.19,9.48,9.48,0,0,0,7.89-5.8,9.42,9.42,0,0,0,.42-5.31A15,15,0,0,0,350.34,379.23Z"/><path class="cls-2" d="M376.87,375.14l-22-20.16,2.44-2.66,19.61,18,9.37-10.22,2.36,2.17Z"/><path class="cls-2" d="M405.64,338.64l-4.82,7.84-25.39-15.64,5-8.18a14.6,14.6,0,0,1,5.41-5.39,11.75,11.75,0,0,1,6.83-1.35,20.08,20.08,0,0,1,13.59,8.39,11.73,11.73,0,0,1,1.86,6.82A15.43,15.43,0,0,1,405.64,338.64ZM400,341.72l2.81-4.56a11.9,11.9,0,0,0,2-6,8.79,8.79,0,0,0-1.56-5.22,17,17,0,0,0-10.63-6.56,8.7,8.7,0,0,0-5.27.89,11.13,11.13,0,0,0-4.26,4.24l-3,4.91Z"/><path class="cls-3" d="M393,230c0-94.44-74.77-171-167-171S59,135.56,59,230a174.22,174.22,0,0,0,11.15,61.56C94.28,355.58,155,401,226,401,318.23,401,393,324.44,393,230Z"/><path class="cls-4" d="M393,226A167,167,0,1,0,226,393,167,167,0,0,0,393,226Z"/><path class="cls-5" d="M44.66,189.18A184.05,184.05,0,0,1,59.16,146a10.61,10.61,0,0,0-18.66-9.65A204.39,204.39,0,0,0,24.7,182a10.61,10.61,0,0,0,20,7.14Z"/><path class="cls-5" d="M162,30.13a206.4,206.4,0,0,0-96.2,66.32C62,101.65,63.29,108.82,68,112a10.91,10.91,0,0,0,13.63-1.69,185.21,185.21,0,0,1,88.1-60.6A10.54,10.54,0,0,0,162,30.13Z"/><path class="cls-2" d="M67.07,277.43c1,2.93,2,5.83,3.08,8.69a167.07,167.07,0,0,0,314.78-8.68,180.82,180.82,0,0,1-317.86,0Z"/><path class="cls-6" d="M328.73,62.5s3.22,14.74,9.68,21.11S359.23,93,359.23,93s-14.48,3.33-20.82,9.67-9.68,20.83-9.68,20.83-3.12-14.48-9.38-20.83S298.23,93,298.23,93s14.74-3,21.12-9.39S328.73,62.5,328.73,62.5Z"/><path class="cls-6" d="M108.68,311.3s3.63,16.6,10.9,23.78S143,345.65,143,345.65s-16.3,3.76-23.44,10.9S108.68,380,108.68,380s-3.51-16.3-10.57-23.44-23.78-10.9-23.78-10.9,16.6-3.38,23.78-10.57S108.68,311.3,108.68,311.3Z"/><path class="cls-6" d="M363.35,304s2,9.18,6,13.15,13,5.85,13,5.85-9,2.08-13,6-6,13-6,13-1.94-9-5.85-13-13.15-6-13.15-6,9.18-1.87,13.15-5.85S363.35,304,363.35,304Z"/><path class="cls-6" d="M225.53,119.3l25.27,57.31,1.33,3,3.3-.36,62.26-6.77-37,50.54-1.95,2.68,1.95,2.67,37,50.54-62.26-6.77-3.3-.36-1.33,3-25.27,57.31-25.27-57.31-1.34-3-3.29.36-62.27,6.77,37-50.54,2-2.67-2-2.68-37-50.54,62.27,6.77,3.29.36,1.34-3Z"/><path class="cls-7" d="M225.53,141.43l20,45.39,1.06,2.41,2.61-.29,49.32-5.36-29.31,40-1.55,2.12,1.55,2.11,29.31,40-49.32-5.36-2.61-.28-1.06,2.4-20,45.39-20-45.39-1.06-2.4-2.6.28-49.32,5.36,29.3-40,1.55-2.11-1.55-2.12-29.3-40,49.32,5.36,2.6.29,1.06-2.41Z"/></g></g></svg>