<svg id="Layer_1" data-name="Layer 1" xmlns="http://www.w3.org/2000/svg" viewBox="0 0 31 48.08"><defs><style>.cls-1{fill:#fd6c0f;}.cls-2{fill:#ff6b0f;}.cls-3{fill:#ff9a59;}.cls-4{fill:#fff;}</style></defs><path class="cls-1" d="M602.87,676.43" transform="translate(-578.67 -659.96)"/><path class="cls-2" d="M609.67,675.46a15.5,15.5,0,1,0-29.27,7.12v0c.11.22,13.82,25.13,13.76,25.44l13.77-25.46A15.47,15.47,0,0,0,609.67,675.46Zm-15.5,11.72a11.72,11.72,0,1,1,11.71-11.72A11.72,11.72,0,0,1,594.17,687.18Z" transform="translate(-578.67 -659.96)"/><circle class="cls-3" cx="15.5" cy="15.46" r="10.26"/><polygon class="cls-4" points="17.83 13.13 17.83 8.77 13.17 8.77 13.17 13.13 8.8 13.13 8.8 17.79 13.17 17.79 13.17 22.16 17.83 22.16 17.83 17.79 22.2 17.79 22.2 13.13 17.83 13.13"/></svg>