<svg id="Layer_1" data-name="Layer 1" xmlns="http://www.w3.org/2000/svg" viewBox="0 0 160 185"><defs><style>.cls-1{fill:#e6e6e6;}.cls-2{fill:#b3b3b3;}.cls-3{fill:gray;}.cls-4{fill:#fff;}.cls-5{fill:#666;}.cls-6{fill:#9cb7cd;}</style></defs><circle class="cls-1" cx="80" cy="105" r="80"/><ellipse class="cls-2" cx="80.31" cy="163" rx="40" ry="3"/><path class="cls-3" d="M495,524l10.81,14.44A61.6,61.6,0,0,1,539,528c17.9-.28,31.57,6.47,36,9.48,3.55-4.81,6.88-9.41,10.43-14.23-5.06-3.8-22-14.2-45.53-14.23A75.55,75.55,0,0,0,495,524Z" transform="translate(-460 -447.5)"/><path class="cls-3" d="M539.92,466.36a111.76,111.76,0,0,0-67.2,22.91l10.65,14.37a91.63,91.63,0,0,1,56.55-19.25c29.94.23,51.09,14.29,56.92,19,3.79-5.06,6.64-9.17,10.44-14.23A111.68,111.68,0,0,0,539.92,466.36Z" transform="translate(-460 -447.5)"/><path class="cls-3" d="M516.69,562A44.45,44.45,0,0,1,563,562q-11.52,15.72-23,31.43Z" transform="translate(-460 -447.5)"/><path class="cls-4" d="M490,520.38a84.42,84.42,0,0,1,49.81-16.44c27.5,0,46.24,12.41,50.64,15.62-1.88,2.55-3.71,5.05-5.53,7.55s-3.72,5.09-5.63,7.68c-6.21-4-21-10.51-39.25-10.51h-1.21a70.29,70.29,0,0,0-37.24,11.57Z" transform="translate(-460 -447.5)"/><path class="cls-5" d="M539.81,504.44h.09a88.48,88.48,0,0,1,49.85,15.23c-1.79,2.43-3.53,4.82-5.28,7.2s-3.51,4.8-5.31,7.25c-6.47-4.07-21.13-10.34-39.12-10.34h-1.22a70.82,70.82,0,0,0-37.11,11.39l-3.34-4.45-7.66-10.24a83.87,83.87,0,0,1,49.1-16.05m0-1a85.07,85.07,0,0,0-50.51,16.84l12.17,16.26a69.31,69.31,0,0,1,37.37-11.75H540c19.56,0,34.43,7.37,39.37,10.69,4-5.42,7.74-10.6,11.74-16-5.7-4.28-24.75-16-51.25-16Z" transform="translate(-460 -447.5)"/><path class="cls-4" d="M465,486.61a124.77,124.77,0,0,1,74.92-25.37h.19A124.82,124.82,0,0,1,615,486.46c-2,2.7-3.83,5.2-5.59,7.62s-3.54,4.9-5.55,7.58c-4.21-3.27-28.46-20.86-64-21.14h-.8A103.08,103.08,0,0,0,476.37,502Z" transform="translate(-460 -447.5)"/><path class="cls-5" d="M540.1,461.74a124.25,124.25,0,0,1,74.21,24.82c-1.9,2.55-3.62,4.92-5.29,7.22s-3.36,4.65-5.25,7.18c-5.21-4-29.21-20.67-63.86-20.94h-.8a103.67,103.67,0,0,0-62.64,21.25l-8.9-12-1.88-2.54a124.21,124.21,0,0,1,74.22-25h.19m0-1h-.2a125.68,125.68,0,0,0-75.6,25.77l12,16.18A103.23,103.23,0,0,1,539.11,481h.79c33.7.27,57.5,16.09,64.06,21.35,4.27-5.69,7.47-10.32,11.74-16a125.7,125.7,0,0,0-75.6-25.62Z" transform="translate(-460 -447.5)"/><path class="cls-4" d="M465,486.61a123.57,123.57,0,0,1,150,0l-11.15,15.06a107.53,107.53,0,0,0-63.74-21.15h-.22a107.51,107.51,0,0,0-63.53,21.16Z" transform="translate(-460 -447.5)"/><path class="cls-5" d="M540,460.74v1a123.92,123.92,0,0,1,74.3,25L609,493.85,603.75,501a108,108,0,0,0-63.63-21h-.22a108,108,0,0,0-63.43,21l-5.39-7.14-5.39-7.13a123.87,123.87,0,0,1,74.22-25H540v-1m0,0h-.1a125.41,125.41,0,0,0-75.6,25.77l12,15.86A107.31,107.31,0,0,1,539.9,481h.22A107.29,107.29,0,0,1,604,502.37q5.88-7.92,11.74-15.86A125.4,125.4,0,0,0,540,460.74Z" transform="translate(-460 -447.5)"/><path class="cls-4" d="M514.5,553.63a49.52,49.52,0,0,1,50.7,0L540,588Z" transform="translate(-460 -447.5)"/><path class="cls-5" d="M539.85,546.15v1h0a49.07,49.07,0,0,1,24.57,6.63l-12.31,16.8L540,587.17l-24.78-33.39a49,49,0,0,1,24.62-6.63v-1m0,0a50.33,50.33,0,0,0-26.08,7.33L540,588.85l25.9-35.37a50.32,50.32,0,0,0-26-7.33Z" transform="translate(-460 -447.5)"/><path class="cls-6" d="M576.86,586.86a7.48,7.48,0,0,1-3.52-.89L477.46,457.65a7,7,0,0,1,1.61-8,6.68,6.68,0,0,1,4.48-1.67,7.25,7.25,0,0,1,4.6,1.66l95.53,127.86a7.29,7.29,0,0,1-2,7.49,7.18,7.18,0,0,1-4.84,1.85Z" transform="translate(-460 -447.5)"/><path class="cls-5" d="M483.55,448.5a6.76,6.76,0,0,1,4.24,1.51l66.15,88.54,29.29,39.2a6.79,6.79,0,0,1-1.87,6.89,6.63,6.63,0,0,1-4.5,1.72,7,7,0,0,1-3.19-.78L477.89,457.4A6.52,6.52,0,0,1,479.4,450a6.24,6.24,0,0,1,4.15-1.54m0-1a7.23,7.23,0,0,0-4.82,1.8,7.48,7.48,0,0,0-1.71,8.6l96,128.46a8,8,0,0,0,3.86,1,7.69,7.69,0,0,0,5.18-2,7.8,7.8,0,0,0,2.1-8.09l-95.63-128a7.68,7.68,0,0,0-5-1.82Z" transform="translate(-460 -447.5)"/></svg>