<svg xmlns="http://www.w3.org/2000/svg" xmlns:xlink="http://www.w3.org/1999/xlink" viewBox="0 0 452 452"><defs><style>.cls-1{fill:url(#linear-gradient);}.cls-2{fill:#b7cde0;}.cls-3{fill:#7893af;}.cls-4{fill:url(#linear-gradient-2);}.cls-5{fill:#d3e5f1;}.cls-6{fill:#fff;}.cls-7{fill:url(#linear-gradient-3);}</style><linearGradient id="linear-gradient" x1="226" y1="0.83" x2="226" y2="452.83" gradientUnits="userSpaceOnUse"><stop offset="0" stop-color="#c0d6e8"/><stop offset="1" stop-color="#85a4c5"/></linearGradient><linearGradient id="linear-gradient-2" x1="59" y1="226" x2="393" y2="226" gradientUnits="userSpaceOnUse"><stop offset="0" stop-color="#e9f2f6"/><stop offset="1" stop-color="#cadceb"/></linearGradient><linearGradient id="linear-gradient-3" x1="-16.36" y1="428.06" x2="-16.36" y2="251.27" gradientTransform="matrix(1, 0, 0, -1, 242.36, 573.06)" gradientUnits="userSpaceOnUse"><stop offset="0" stop-color="#768ba1"/><stop offset="1" stop-color="#8aa3ba"/></linearGradient></defs><g id="Layer_2" data-name="Layer 2"><g id="Layer_1-2" data-name="Layer 1"><circle class="cls-1" cx="226" cy="226" r="226"/><path class="cls-2" d="M307.32,397.51A4.55,4.55,0,0,0,304,395.2a8.18,8.18,0,0,0-4.69.68,8.84,8.84,0,0,0-2.92,2,5.45,5.45,0,0,0-1.41,2.53,4.18,4.18,0,0,0,.25,2.67,3.59,3.59,0,0,0,1.34,1.65,4.89,4.89,0,0,0,1.92.71,10.56,10.56,0,0,0,2.1.09c.7,0,1.33-.11,1.9-.19l3.1-.45a27.09,27.09,0,0,1,2.72-.26,12.23,12.23,0,0,1,3.11.26,7.36,7.36,0,0,1,2.93,1.31,6.68,6.68,0,0,1,2.19,2.91,7.91,7.91,0,0,1,.58,4.51,8.75,8.75,0,0,1-2.14,4.3,15.41,15.41,0,0,1-10.41,4.61,8.69,8.69,0,0,1-4.51-1.19A8.16,8.16,0,0,1,297,418l3.42-1.48a4.63,4.63,0,0,0,2.16,2.11,6,6,0,0,0,3,.5,10.06,10.06,0,0,0,3.25-.83,9.53,9.53,0,0,0,3.14-2.09,6.31,6.31,0,0,0,1.65-2.77,4.49,4.49,0,0,0-.25-3,3.52,3.52,0,0,0-1.72-1.9A6.1,6.1,0,0,0,309,408a23.89,23.89,0,0,0-3.09.22l-3.79.49a13.64,13.64,0,0,1-6.21-.44,6.32,6.32,0,0,1-3.81-3.67,7.24,7.24,0,0,1-.48-4.56,9,9,0,0,1,2.21-4.12,12.33,12.33,0,0,1,4.33-3,12,12,0,0,1,5.11-1.09,9,9,0,0,1,4.38,1.16,7,7,0,0,1,2.88,3.15Z"/><path class="cls-2" d="M324,379.62l15.82,25.28-3.06,1.92-15.82-25.28Z"/><path class="cls-2" d="M356.76,393.07,337.5,370.3l2.76-2.33,17.19,20.33L368,379.35l2.07,2.44Z"/><path class="cls-2" d="M359.92,349.84l24.92,9.34.23-.27L371.51,336l2.44-2.9,15.82,27.55-2.39,2.85-29.89-10.75Z"/><path class="cls-2" d="M407.23,336.4l-26.06-14.48,8.74-15.73,2.8,1.55-7,12.57,8.81,4.9,6.53-11.76,2.8,1.56-6.53,11.76,8.85,4.92,7.1-12.78,2.8,1.56Z"/><path class="cls-2" d="M424.34,301.64,396,292.27l3.16-9.56a12.3,12.3,0,0,1,2.93-5.08,7.68,7.68,0,0,1,4.13-2.13,10.19,10.19,0,0,1,4.81.46,9.81,9.81,0,0,1,4.09,2.49,7.55,7.55,0,0,1,2,4.14,12.21,12.21,0,0,1-.69,5.77l-2.56,7.74-3.1-1,2.53-7.63a9.14,9.14,0,0,0,.55-3.88,4.52,4.52,0,0,0-1.22-2.64,6.77,6.77,0,0,0-2.72-1.6,7,7,0,0,0-3.18-.35,4.62,4.62,0,0,0-2.64,1.39,8.54,8.54,0,0,0-1.92,3.46l-2,6,25.27,8.36ZM416,284.11l15-2.76-1.32,4-15,2.65Z"/><path class="cls-3" d="M393,230c0-94.44-74.77-171-167-171S59,135.56,59,230a174.22,174.22,0,0,0,11.15,61.56C94.28,355.58,155,401,226,401,318.23,401,393,324.44,393,230Z"/><path class="cls-4" d="M393,226A167,167,0,1,0,226,393,167,167,0,0,0,393,226Z"/><path class="cls-5" d="M44.66,189.18A184.05,184.05,0,0,1,59.16,146a10.61,10.61,0,0,0-18.66-9.65A204.39,204.39,0,0,0,24.7,182a10.61,10.61,0,0,0,20,7.14Z"/><path class="cls-5" d="M162,30.13a206.4,206.4,0,0,0-96.2,66.32C62,101.65,63.29,108.82,68,112a10.91,10.91,0,0,0,13.63-1.69,185.21,185.21,0,0,1,88.1-60.6A10.54,10.54,0,0,0,162,30.13Z"/><path class="cls-2" d="M67.07,277.43c1,2.93,2,5.83,3.08,8.69a167.07,167.07,0,0,0,314.78-8.68,180.82,180.82,0,0,1-317.86,0Z"/><polygon class="cls-6" points="226 129 248.54 198.38 249.58 201.57 252.93 201.57 325.89 201.57 266.87 244.46 264.15 246.43 265.19 249.62 287.73 319 228.71 276.12 226 274.15 223.29 276.12 164.27 319 186.81 249.62 187.85 246.43 185.13 244.46 126.11 201.57 199.07 201.57 202.42 201.57 203.46 198.38 226 129"/><polygon class="cls-7" points="226 156 242.61 207.13 243.38 209.47 245.84 209.47 299.6 209.47 256.11 241.07 254.11 242.53 254.88 244.87 271.49 296 228 264.4 226 262.95 224 264.4 180.51 296 197.12 244.87 197.89 242.53 195.89 241.07 152.4 209.47 206.16 209.47 208.63 209.47 209.39 207.13 226 156"/><path class="cls-6" d="M328.73,62.5s3.22,14.74,9.68,21.11S359.23,93,359.23,93s-14.48,3.33-20.82,9.67-9.68,20.83-9.68,20.83-3.12-14.48-9.38-20.83S298.23,93,298.23,93s14.74-3,21.12-9.39S328.73,62.5,328.73,62.5Z"/><path class="cls-6" d="M108.68,329.65s1.69,7.73,5.08,11.08,10.92,4.92,10.92,4.92-7.6,1.75-10.92,5.08-5.08,10.92-5.08,10.92-1.64-7.59-4.92-10.92-11.08-5.08-11.08-5.08,7.73-1.58,11.08-4.92S108.68,329.65,108.68,329.65Z"/></g></g></svg>